<svg xmlns="http://www.w3.org/2000/svg" viewBox="0 0 1200 320" width="1200" height="320" aria-hidden="true">
  <defs>
    <linearGradient id="bg" x1="0%" y1="0%" x2="100%" y2="100%">
      <stop offset="0%" stop-color="#e8f1ff"/>
      <stop offset="55%" stop-color="#dbeafe"/>
      <stop offset="100%" stop-color="#cfe8ff"/>
    </linearGradient>
    <linearGradient id="accent" x1="0%" y1="0%" x2="100%" y2="0%">
      <stop offset="0%" stop-color="#0969da" stop-opacity="0.95"/>
      <stop offset="100%" stop-color="#388bfd" stop-opacity="0.85"/>
    </linearGradient>
  </defs>
  <rect width="1200" height="320" fill="url(#bg)"/>
  <g opacity="0.14" stroke="#0969da" stroke-width="1" fill="none">
    <path d="M0 80 H1200 M0 160 H1200 M0 240 H1200"/>
    <path d="M200 0 V320 M400 0 V320 M600 0 V320 M800 0 V320 M1000 0 V320"/>
  </g>
  <g transform="translate(720 52)">
    <rect x="0" y="0" width="200" height="120" rx="10" fill="#fff" opacity="0.92" stroke="#0969da" stroke-opacity="0.2"/>
    <rect x="16" y="20" width="120" height="10" rx="4" fill="url(#accent)" opacity="0.35"/>
    <rect x="16" y="42" width="168" height="6" rx="3" fill="#59636e" opacity="0.2"/>
    <rect x="16" y="56" width="140" height="6" rx="3" fill="#59636e" opacity="0.15"/>
    <rect x="16" y="78" width="90" height="22" rx="6" fill="#0969da" opacity="0.85"/>
  </g>
  <g transform="translate(900 88)" opacity="0.95">
    <rect x="0" y="0" width="200" height="120" rx="10" fill="#fff" opacity="0.88" stroke="#0969da" stroke-opacity="0.18"/>
    <rect x="16" y="22" width="100" height="8" rx="3" fill="#388bfd" opacity="0.45"/>
    <rect x="16" y="44" width="168" height="6" rx="3" fill="#59636e" opacity="0.18"/>
    <rect x="16" y="58" width="120" height="6" rx="3" fill="#59636e" opacity="0.12"/>
  </g>
  <rect x="0" y="0" width="8" height="320" fill="url(#accent)"/>
</svg>
